<mxfile host="65bd71144e" modified="2021-02-19T17:52:26.286Z" agent="5.0 (Windows NT 10.0; Win64; x64) AppleWebKit/537.36 (KHTML, like Gecko) Code/1.53.2 Chrome/87.0.4280.141 Electron/11.2.1 Safari/537.36" version="14.2.4" etag="auna3EoUVYgmQz4wP9Ki" type="embed">
    <diagram id="9o7ToQVCgTPz14OM4nRe" name="Page-1">
        <mxGraphModel dx="751" dy="575" grid="1" gridSize="10" guides="1" tooltips="1" connect="1" arrows="1" fold="1" page="1" pageScale="1" pageWidth="850" pageHeight="1100" math="0" shadow="0">
            <root>
                <mxCell id="0"/>
                <mxCell id="1" parent="0"/>
                <mxCell id="27" value="" style="rounded=1;whiteSpace=wrap;html=1;fontColor=#ffffff;strokeColor=#0066CC;dashed=1;fillColor=#99999999;" vertex="1" parent="1">
                    <mxGeometry x="120" y="40" width="520" height="280" as="geometry"/>
                </mxCell>
                <mxCell id="2" value="" style="outlineConnect=0;dashed=0;verticalLabelPosition=bottom;verticalAlign=top;align=center;html=1;shape=mxgraph.aws3.camera;fillColor=#5294CF;gradientColor=none;" vertex="1" parent="1">
                    <mxGeometry x="160" y="399.5" width="79.5" height="79.5" as="geometry"/>
                </mxCell>
                <mxCell id="3" value="" style="outlineConnect=0;dashed=0;verticalLabelPosition=bottom;verticalAlign=top;align=center;html=1;shape=mxgraph.aws3.camera;fillColor=#5294CF;gradientColor=none;" vertex="1" parent="1">
                    <mxGeometry x="280" y="399.5" width="79.5" height="79.5" as="geometry"/>
                </mxCell>
                <mxCell id="6" value="&lt;font style=&quot;font-size: 20px&quot;&gt;Motor&lt;/font&gt;" style="dashed=0;outlineConnect=0;align=center;html=1;shape=mxgraph.pid.engines.electric_motor;fontSize=45;fillColor=#1ba1e2;strokeColor=#006EAF;fontColor=#ffffff;" vertex="1" parent="1">
                    <mxGeometry x="520" y="399.5" width="80" height="80" as="geometry"/>
                </mxCell>
                <mxCell id="7" value="&lt;font style=&quot;font-size: 20px&quot;&gt;Motor&lt;/font&gt;" style="dashed=0;outlineConnect=0;align=center;html=1;shape=mxgraph.pid.engines.electric_motor;fontSize=45;fillColor=#1ba1e2;strokeColor=#006EAF;fontColor=#ffffff;" vertex="1" parent="1">
                    <mxGeometry x="400" y="399.5" width="80" height="80" as="geometry"/>
                </mxCell>
                <mxCell id="10" value="" style="pointerEvents=1;shadow=0;dashed=0;html=1;aspect=fixed;labelPosition=center;verticalLabelPosition=bottom;verticalAlign=top;align=center;outlineConnect=0;shape=mxgraph.vvd.cpu;fillColor=#1ba1e2;strokeColor=#006EAF;fontColor=#ffffff;" vertex="1" parent="1">
                    <mxGeometry x="300" y="115.27" width="160" height="160" as="geometry"/>
                </mxCell>
                <mxCell id="11" value="&lt;div&gt;&lt;br&gt;&lt;/div&gt;&lt;div&gt;&lt;b&gt;&lt;font style=&quot;font-size: 11px&quot; color=&quot;#000000&quot;&gt;Boot FS&lt;/font&gt;&lt;/b&gt;&lt;br&gt;&lt;/div&gt;" style="html=1;aspect=fixed;strokeColor=#BD7000;shadow=0;align=center;verticalAlign=top;fillColor=#f0a30a;shape=mxgraph.gcp2.memory_card;fontColor=#ffffff;" vertex="1" parent="1">
                    <mxGeometry x="528.63" y="100" width="46.5" height="50" as="geometry"/>
                </mxCell>
                <mxCell id="13" value="Firmware" style="pointerEvents=1;shadow=0;dashed=0;aspect=fixed;labelPosition=center;verticalLabelPosition=bottom;verticalAlign=top;align=left;outlineConnect=0;shape=mxgraph.vvd.memory;fontStyle=1;fontFamily=Helvetica;strokeColor=#314354;fontColor=#ffffff;fillColor=#647687;" vertex="1" parent="1">
                    <mxGeometry x="425" y="50" width="93.68" height="35.6" as="geometry"/>
                </mxCell>
                <mxCell id="19" value="USB" style="edgeStyle=elbowEdgeStyle;elbow=vertical;endArrow=classic;html=1;exitX=0.5;exitY=0;exitDx=0;exitDy=0;exitPerimeter=0;startArrow=classic;startFill=1;" edge="1" parent="1" source="3" target="10">
                    <mxGeometry x="-0.3151" width="50" height="50" relative="1" as="geometry">
                        <mxPoint x="320" y="340" as="sourcePoint"/>
                        <mxPoint x="370" y="290" as="targetPoint"/>
                        <Array as="points">
                            <mxPoint x="370" y="370"/>
                            <mxPoint x="370" y="318"/>
                        </Array>
                        <mxPoint as="offset"/>
                    </mxGeometry>
                </mxCell>
                <mxCell id="20" value="USB" style="edgeStyle=elbowEdgeStyle;elbow=vertical;endArrow=classic;html=1;startArrow=classic;startFill=1;" edge="1" parent="1" source="2" target="10">
                    <mxGeometry width="50" height="50" relative="1" as="geometry">
                        <mxPoint x="329.75" y="370.5" as="sourcePoint"/>
                        <mxPoint x="390" y="285.27" as="targetPoint"/>
                        <Array as="points">
                            <mxPoint x="350" y="350"/>
                            <mxPoint x="350" y="310"/>
                            <mxPoint x="290" y="310"/>
                        </Array>
                    </mxGeometry>
                </mxCell>
                <mxCell id="21" value="USB" style="edgeStyle=elbowEdgeStyle;elbow=vertical;endArrow=classic;html=1;startArrow=classic;startFill=1;exitX=0.5;exitY=0;exitDx=0;exitDy=0;exitPerimeter=0;" edge="1" parent="1" source="7" target="10">
                    <mxGeometry x="-0.317" width="50" height="50" relative="1" as="geometry">
                        <mxPoint x="440" y="361" as="sourcePoint"/>
                        <mxPoint x="400" y="295.27" as="targetPoint"/>
                        <Array as="points">
                            <mxPoint x="390" y="370"/>
                            <mxPoint x="390" y="318"/>
                            <mxPoint x="420" y="318"/>
                        </Array>
                        <mxPoint as="offset"/>
                    </mxGeometry>
                </mxCell>
                <mxCell id="22" value="USB" style="edgeStyle=elbowEdgeStyle;elbow=vertical;endArrow=classic;html=1;exitX=0.5;exitY=0;exitDx=0;exitDy=0;exitPerimeter=0;startArrow=classic;startFill=1;" edge="1" parent="1" source="6" target="10">
                    <mxGeometry width="50" height="50" relative="1" as="geometry">
                        <mxPoint x="349.75" y="390.5" as="sourcePoint"/>
                        <mxPoint x="410" y="305.27" as="targetPoint"/>
                        <Array as="points">
                            <mxPoint x="410" y="350"/>
                            <mxPoint x="410" y="310"/>
                            <mxPoint x="470" y="310"/>
                        </Array>
                    </mxGeometry>
                </mxCell>
                <mxCell id="24" value="" style="edgeStyle=elbowEdgeStyle;elbow=vertical;endArrow=classic;html=1;startArrow=classic;startFill=1;" edge="1" parent="1" source="10" target="13">
                    <mxGeometry width="50" height="50" relative="1" as="geometry">
                        <mxPoint x="360" y="320" as="sourcePoint"/>
                        <mxPoint x="410" y="270" as="targetPoint"/>
                        <Array as="points">
                            <mxPoint x="510" y="170"/>
                        </Array>
                    </mxGeometry>
                </mxCell>
                <mxCell id="25" value="" style="edgeStyle=elbowEdgeStyle;elbow=vertical;endArrow=classic;html=1;startArrow=classic;startFill=1;" edge="1" parent="1" source="10" target="11">
                    <mxGeometry width="50" height="50" relative="1" as="geometry">
                        <mxPoint x="470" y="205.26999999999998" as="sourcePoint"/>
                        <mxPoint x="560" y="210" as="targetPoint"/>
                        <Array as="points">
                            <mxPoint x="550" y="190"/>
                            <mxPoint x="450" y="210"/>
                            <mxPoint x="490" y="220"/>
                        </Array>
                    </mxGeometry>
                </mxCell>
                <mxCell id="30" value="&lt;div&gt;&lt;br&gt;&lt;/div&gt;&lt;div&gt;&lt;b&gt;&lt;font style=&quot;font-size: 11px&quot; color=&quot;#000000&quot;&gt;Root FS&lt;/font&gt;&lt;/b&gt;&lt;br&gt;&lt;/div&gt;" style="html=1;aspect=fixed;strokeColor=#C73500;shadow=0;align=center;verticalAlign=top;fillColor=#fa6800;shape=mxgraph.gcp2.memory_card;fontColor=#ffffff;" vertex="1" parent="1">
                    <mxGeometry x="580" y="145" width="46.5" height="50" as="geometry"/>
                </mxCell>
                <mxCell id="31" value="" style="edgeStyle=elbowEdgeStyle;elbow=vertical;endArrow=classic;html=1;startArrow=classic;startFill=1;" edge="1" parent="1" target="30" source="10">
                    <mxGeometry width="50" height="50" relative="1" as="geometry">
                        <mxPoint x="498.38" y="250" as="sourcePoint"/>
                        <mxPoint x="598.38" y="270" as="targetPoint"/>
                        <Array as="points">
                            <mxPoint x="603" y="220"/>
                            <mxPoint x="488.38" y="270"/>
                            <mxPoint x="528.38" y="280"/>
                        </Array>
                    </mxGeometry>
                </mxCell>
            </root>
        </mxGraphModel>
    </diagram>
</mxfile>